<svg width="1042" height="554" viewBox="0 0 1042 554" fill="none" xmlns="http://www.w3.org/2000/svg">
<rect width="1042" height="554" fill="#E5E5E5"/>
<g id="undraw_conference_speaker_6nt7 1" clip-path="url(#clip0)">
<path id="Vector" d="M357.93 338.65C359 336.49 360.78 334.79 362.26 332.9C362.045 333.078 361.822 333.245 361.59 333.4C360.495 333.865 359.482 334.503 358.59 335.29C358.044 336.048 357.674 336.92 357.51 337.84L354.96 347.74C355.46 347.11 355.96 346.49 356.47 345.87C356.439 343.387 356.937 340.926 357.93 338.65V338.65Z" fill="#F2F2F2"/>
<path id="Vector_2" d="M598.66 345.34C598.49 346.461 598.153 347.549 597.66 348.57C597.685 352.76 597.126 356.934 596 360.97C595.528 362.673 595.178 364.407 594.95 366.16C592.59 382.3 590.31 399.16 594.34 414.8C594.63 413.851 595.156 412.99 595.87 412.3C598.53 409.03 599.58 404.76 600.37 400.62C604.52 378.82 603.37 356.56 602.37 334.29C601.752 333.609 601.013 333.05 600.19 332.64C600.237 333.614 600.214 334.59 600.12 335.56C599.8 338.843 599.313 342.107 598.66 345.34Z" fill="#F2F2F2"/>
<path id="Vector_3" d="M458.44 338.67C458.413 337.399 458.148 336.144 457.66 334.97C457.142 333.99 456.489 333.088 455.72 332.29L453.56 329.83C452.46 355.95 450.12 382.14 454.98 407.71C455.77 411.85 456.82 416.12 459.48 419.39C460.194 420.08 460.72 420.941 461.01 421.89C465.01 406.28 462.76 389.39 460.4 373.25C460.172 371.497 459.822 369.763 459.35 368.06C457.576 361.496 457.171 354.637 458.16 347.91C458.556 344.847 458.65 341.752 458.44 338.67V338.67Z" fill="#F2F2F2"/>
<path id="Vector_4" d="M470.82 283.55C473.71 288.3 475.51 293.95 477.13 299.33L477.82 301.67C477.49 293.76 477.33 285.86 477.27 277.95C475.71 279.34 474.14 280.7 472.56 282.06L470.82 283.55Z" fill="#F2F2F2"/>
<path id="Vector_5" d="M494.07 550.11C494.507 544.571 494.078 538.997 492.8 533.59C491.92 530.17 490.56 526.82 490.44 523.28C490.465 520.922 490.754 518.574 491.3 516.28C495.41 495.38 497.18 473.39 490.96 453.02C489.29 447.56 487.08 442.28 485.38 436.83C484.605 438.875 483.662 440.852 482.56 442.74C482.324 441.862 481.896 441.047 481.306 440.355C480.716 439.663 479.98 439.112 479.15 438.74C479.197 439.714 479.173 440.69 479.08 441.66C478.782 444.928 478.318 448.179 477.69 451.4C477.512 452.658 477.095 453.87 476.46 454.97C475.631 456.117 474.523 457.032 473.24 457.63C473.82 458.94 474.4 460.26 474.97 461.57L470.8 462.85C473.54 468.85 471.26 475.69 469.8 482.07C464.57 504.26 469.28 527.96 466.8 550.39L494.07 550.11Z" fill="#F2F2F2"/>
<path id="Vector_6" d="M478.93 232.65C480 230.49 481.78 228.79 483.26 226.9C483.045 227.078 482.822 227.245 482.59 227.4C481.495 227.865 480.482 228.503 479.59 229.29C479.044 230.048 478.674 230.92 478.51 231.84L475.96 241.74C476.46 241.11 476.96 240.49 477.47 239.87C477.439 237.387 477.937 234.926 478.93 232.65V232.65Z" fill="#F2F2F2"/>
<path id="Vector_7" d="M579.44 232.67C579.413 231.399 579.148 230.144 578.66 228.97C578.142 227.99 577.489 227.088 576.72 226.29L574.56 223.83C573.48 249.55 571.2 275.35 575.78 300.55C576.59 297.83 577.41 295.11 578.22 292.38C579.455 287.893 581.064 283.518 583.03 279.3C582.56 275.3 581.98 271.23 581.4 267.3C581.172 265.547 580.822 263.813 580.35 262.11C578.576 255.546 578.171 248.687 579.16 241.96C579.56 238.88 579.653 235.768 579.44 232.67V232.67Z" fill="#F2F2F2"/>
<path id="Vector_8" d="M535.83 429.25L532.41 549.7L541.41 549.6C539.825 534.938 539.104 520.196 539.25 505.45C539.25 501.16 539.4 496.83 538.51 492.63C537.88 489.7 536.78 486.89 536.18 483.96C535.591 480.442 535.367 476.874 535.51 473.31L535.83 429.25Z" fill="#F2F2F2"/>
<path id="Vector_9" d="M458.49 429.31C458.63 428.98 458.77 428.65 458.9 428.31C459.37 427.09 459.79 425.86 460.18 424.62C460.15 424.664 460.123 424.711 460.1 424.76C459.31 426.06 458.45 427.31 457.56 428.53C457.88 428.79 458.19 429.04 458.49 429.31Z" fill="#F2F2F2"/>
<path id="Vector_10" d="M186.44 294.67C186.413 293.399 186.148 292.144 185.66 290.97C185.142 289.99 184.489 289.088 183.72 288.29L181.56 285.83C180.46 311.95 178.12 338.14 182.98 363.71C183.77 367.85 184.82 372.12 187.48 375.39C188.194 376.08 188.72 376.941 189.01 377.89C193.01 362.28 190.76 345.39 188.4 329.25C188.189 327.499 187.855 325.764 187.4 324.06C185.626 317.496 185.221 310.637 186.21 303.91C186.59 300.845 186.667 297.75 186.44 294.67V294.67Z" fill="#F2F2F2"/>
<path id="Vector_11" d="M186.49 385.31C186.63 384.98 186.77 384.65 186.9 384.31C187.37 383.09 187.79 381.86 188.18 380.62C188.15 380.664 188.123 380.711 188.1 380.76C187.31 382.06 186.45 383.31 185.56 384.53C185.88 384.79 186.19 385.04 186.49 385.31Z" fill="#F2F2F2"/>
<path id="Vector_12" d="M142.83 491.25C142.243 512.15 141.65 533.047 141.05 553.94L145.34 553.89C144.7 551.23 143.75 548.65 143.2 545.96C142.611 542.442 142.387 538.874 142.53 535.31L142.83 491.25Z" fill="#F2F2F2"/>
<path id="Vector_13" d="M207.08 551.65C205.795 551.047 204.687 550.124 203.86 548.97C203.216 547.845 202.798 546.605 202.63 545.32C202.002 542.099 201.538 538.848 201.24 535.58C201.146 534.61 201.123 533.634 201.17 532.66C200.34 533.032 199.604 533.583 199.014 534.275C198.424 534.967 197.996 535.782 197.76 536.66C194.846 531.503 192.939 525.839 192.14 519.97C191.84 520.97 191.53 522.07 191.14 523.11C189.06 529.3 186.04 535.29 185.44 541.8C185.153 545.718 185.49 549.658 186.44 553.47L206.3 553.25C206.66 552.71 206.85 552.18 207.08 551.65Z" fill="#F2F2F2"/>
<path id="Vector_14" d="M220.14 518.63C220.53 519.87 220.95 521.1 221.42 522.32C221.55 522.65 221.69 522.98 221.83 523.32C222.13 523.05 222.44 522.8 222.76 522.55C221.87 521.33 221.01 520.08 220.22 518.78C220.198 518.728 220.171 518.678 220.14 518.63V518.63Z" fill="#F2F2F2"/>
<path id="Vector_15" d="M363.41 539.43C362.008 533.472 361.049 527.419 360.54 521.32C358.953 506.653 357.367 491.987 355.78 477.32C355.73 476.94 355.69 476.55 355.65 476.17C355.59 476.36 355.54 476.55 355.48 476.74C354.27 480.29 351.87 483.28 349.48 486.2C347.09 489.12 344.1 492.14 340.59 491.28C339.152 490.81 337.846 490.004 336.78 488.93L328.78 482.02C327.2 480.66 325.63 479.3 324.07 477.91C324 487.56 323.78 497.2 323.28 506.84C323.12 509.89 322.87 513.07 321.43 515.73C324.381 524.9 326.017 534.441 326.29 544.07C326.36 546.68 326.29 549.29 326.21 551.9L349.65 551.64H349.79L367.42 551.45C365.95 547.51 364.47 543.53 363.41 539.43Z" fill="#F2F2F2"/>
<path id="Vector_16" d="M323.81 439.87C324.31 440.49 324.81 441.11 325.32 441.74L322.77 431.84C322.606 430.92 322.236 430.048 321.69 429.29C320.798 428.503 319.785 427.865 318.69 427.4C318.458 427.245 318.235 427.078 318.02 426.9C319.5 428.79 321.28 430.49 322.35 432.65C323.343 434.926 323.841 437.387 323.81 439.87V439.87Z" fill="#F2F2F2"/>
<path id="Vector_17" d="M352.8 395.97C353.43 402.92 353.8 409.89 354.15 416.86C354.5 423.83 354.86 430.62 355.21 437.5C356.027 432.177 357.264 426.927 358.91 421.8C357.47 419.14 357.22 415.96 357.06 412.91C356.56 403.27 356.34 393.63 356.27 383.98C354.74 385.35 353.19 386.69 351.63 387.98C352.211 390.612 352.602 393.282 352.8 395.97Z" fill="#F2F2F2"/>
<path id="Vector_18" d="M219.95 467.2C217.59 483.34 215.31 500.2 219.34 515.84C219.63 514.891 220.156 514.03 220.87 513.34C223.53 510.07 224.58 505.8 225.37 501.66C230.23 476.09 227.89 449.9 226.79 423.78L224.66 426.24C223.866 427.049 223.192 427.969 222.66 428.97C222.155 430.158 221.881 431.43 221.85 432.72C221.653 435.786 221.757 438.864 222.16 441.91C223.146 448.606 222.752 455.433 221 461.97C220.527 463.686 220.176 465.434 219.95 467.2V467.2Z" fill="#F2F2F2"/>
<path id="Vector_19" d="M581.56 549.16L589.4 549.08C585.22 525 591.25 499.15 585.57 475.08C584.68 471.33 583.57 467.4 583.29 463.59C581.29 468.9 579 474.14 578.48 479.77C577.57 489.5 582.15 498.82 583.85 508.45C586.19 521.72 583.02 535.25 581.61 548.65C581.59 548.83 581.58 548.97 581.56 549.16Z" fill="#F2F2F2"/>
<path id="Vector_20" d="M851.14 537.09C842.06 510.03 851.14 479.87 844.57 452.09C843.06 445.71 840.78 438.82 843.57 432.87L839.4 431.59C839.97 430.28 840.55 428.96 841.13 427.65C840.319 427.237 839.566 426.72 838.89 426.11L835.83 454.32C835.321 460.419 834.362 466.472 832.96 472.43C831.23 479.08 828.42 485.43 826.41 491.98C821.04 509.54 821.63 528.3 824.52 546.53L854.52 546.21C853.42 543.16 852.17 540.15 851.14 537.09Z" fill="#F2F2F2"/>
<path id="Vector_21" d="M837.11 269.61L837.19 269.33L837.55 268.16C836.692 267.451 835.744 266.859 834.73 266.4C834.498 266.245 834.275 266.078 834.06 265.9C835.05 267.16 836.16 268.33 837.11 269.61Z" fill="#F2F2F2"/>
<path id="Vector_22" d="M736.14 357.63C736.53 358.87 736.95 360.1 737.42 361.32C737.55 361.65 737.69 361.98 737.83 362.32C738.13 362.05 738.44 361.8 738.76 361.55C737.87 360.33 737.01 359.08 736.22 357.78C736.198 357.728 736.171 357.678 736.14 357.63Z" fill="#F2F2F2"/>
<path id="Vector_23" d="M859.37 377.66C862.44 361.54 862.64 345.18 862.09 328.75C861.361 329.415 860.488 329.903 859.539 330.175C858.59 330.448 857.591 330.497 856.62 330.32L856.45 330.27C856.206 332.889 855.721 335.48 855 338.01C854.528 339.713 854.178 341.447 853.95 343.2C851.59 359.34 849.31 376.2 853.34 391.84C853.63 390.891 854.156 390.03 854.87 389.34C857.53 386.07 858.58 381.8 859.37 377.66Z" fill="#F2F2F2"/>
<path id="Vector_24" d="M414.73 550.97C414.73 545.73 414.763 540.487 414.83 535.24C414.677 540.48 414.53 545.723 414.39 550.97H414.73Z" fill="#F2F2F2"/>
<path id="Vector_25" d="M1037.9 117.16C1037.23 113.393 1036.44 109.69 1035.53 106.05C1025.83 66.83 1003.12 35.53 961.53 18.59C957.963 17.1367 954.257 15.8033 950.41 14.59C941.657 11.8097 932.714 9.67067 923.65 8.19001C836.41 -6.39999 763.05 0.540001 696.92 13.7C693.19 14.43 689.49 15.2 685.8 15.98C593.1 35.57 514.16 65.92 429.93 63.27C426.24 63.16 422.53 62.98 418.82 62.74C382.1 60.3 344.22 51.31 303.65 32.19C255.7 9.60001 206.94 17.19 162.95 44.09C138.12 59.25 114.81 80.57 94.02 106.09L93.95 106.17C91.0167 109.77 88.1367 113.437 85.31 117.17C17.66 207.05 -19.9 341.45 10.91 445.6C12.0167 449.353 13.2167 453.06 14.51 456.72C23.41 482.11 36.65 505.45 54.81 525.59C65.3474 537.241 78.8621 545.797 93.9 550.34C96.48 551.14 99.11 551.79 101.77 552.34C102.52 539.69 101.65 527.05 97.96 514.98C95.96 508.4 93.14 502.08 91.41 495.43C90.0082 489.472 89.0489 483.419 88.54 477.32C86.9534 462.653 85.3667 447.987 83.78 433.32C82.78 424.32 81.78 415.18 82.05 406.07C82.3226 396.441 83.9589 386.9 86.91 377.73C85.47 375.07 85.22 371.89 85.06 368.84C84.56 359.2 84.34 349.56 84.27 339.91C82.71 341.3 81.14 342.66 79.56 344.02L71.51 350.97C70.4441 352.044 69.1383 352.85 67.7 353.32C64.19 354.18 61.08 351.06 58.81 348.24C56.54 345.42 54.05 342.33 52.81 338.78C51.8614 335.482 51.4926 332.044 51.72 328.62C51.8 324.23 52.02 319.85 52.25 315.47L54.14 278.83C54.5 271.83 54.86 264.89 55.49 257.94C55.94 252.94 56.58 247.86 59.15 243.59C63.98 235.59 74.34 232.8 83.75 233.48C83.5155 233.017 83.3859 232.509 83.3703 231.99C83.3547 231.472 83.4537 230.956 83.66 230.48C84.2485 229.586 85.0915 228.89 86.08 228.48L99.99 220.97C100.975 220.345 102.09 219.951 103.25 219.82C103.864 219.799 104.475 219.926 105.03 220.19L107.72 218.31C108.321 217.837 108.997 217.468 109.72 217.22C110.623 216.993 111.573 217.038 112.45 217.35C113.128 215.998 113.519 214.52 113.6 213.01C113.541 211.133 113.142 209.283 112.42 207.55C109.213 205.123 106.604 201.993 104.792 198.402C102.981 194.81 102.016 190.852 101.97 186.83C98.97 185.15 95.11 184.21 93.89 180.67C93.06 178.26 94.05 175.6 93.71 173.09C93.0458 172.432 92.5397 171.632 92.23 170.75C91.37 168.26 92.49 165.48 92.03 162.88C91.77 161.45 91.03 160.05 91.32 158.63C91.6139 157.621 92.1573 156.703 92.9 155.96L102.73 144.32C104.9 141.76 107.14 139.13 110.12 137.6C117.26 133.93 125.81 137.6 133.83 137.6C136.52 137.6 139.3 137.18 141.83 138.05C143.651 138.794 145.324 139.857 146.77 141.19L157.77 150.19C161.47 153.19 165.46 156.76 165.82 161.52C165.904 162.964 165.693 164.41 165.2 165.77C166.475 167.405 167.262 169.367 167.47 171.43C167.72 174.73 166.12 177.89 164.28 180.64C161.517 184.741 158.145 188.396 154.28 191.48C153.375 196.226 151.186 200.632 147.95 204.22C148.675 207.707 149.623 211.145 150.79 214.51C150.818 214.568 150.841 214.628 150.86 214.69C151.795 214.744 152.696 215.059 153.46 215.6C154.248 216.189 154.972 216.86 155.62 217.6C155.969 217.052 156.479 216.626 157.08 216.38C158.56 215.79 160.22 216.46 161.67 217.12C166.08 219.12 170.57 221.21 174.16 224.46C175.467 225.647 176.569 227.043 177.42 228.59C182.449 227.888 187.56 229.071 191.77 231.91C199.33 237.09 202.44 246.55 205.07 255.33C207.03 261.903 208.993 268.47 210.96 275.03C213.54 283.65 216.14 292.37 216.74 301.35C217.29 309.52 216.17 317.7 215.05 325.81C213.5 337.04 217.15 349.35 217.2 360.68C217.2 363.59 217.2 366.54 217.13 369.48C221.207 366.961 226.032 365.94 230.78 366.59C231.631 365.043 232.733 363.647 234.04 362.46C237.63 359.21 242.12 357.14 246.53 355.12C247.98 354.46 249.64 353.79 251.12 354.38C251.721 354.626 252.231 355.052 252.58 355.6C253.228 354.86 253.952 354.189 254.74 353.6C255.504 353.059 256.405 352.744 257.34 352.69C257.359 352.628 257.382 352.568 257.41 352.51C258.577 349.145 259.525 345.707 260.25 342.22C257.014 338.632 254.825 334.226 253.92 329.48C250.055 326.396 246.683 322.741 243.92 318.64C242.08 315.89 240.48 312.73 240.73 309.43C240.938 307.367 241.725 305.405 243 303.77C242.507 302.41 242.296 300.964 242.38 299.52C242.74 294.76 246.73 291.2 250.43 288.19L261.43 279.19C262.876 277.857 264.549 276.794 266.37 276.05C268.91 275.18 271.69 275.6 274.37 275.6C282.37 275.6 290.94 271.95 298.08 275.6C301.08 277.13 303.3 279.76 305.47 282.32L315.43 293.97C316.173 294.713 316.716 295.631 317.01 296.64C317.29 298.06 316.56 299.46 316.3 300.89C315.84 303.49 316.96 306.27 316.1 308.76C315.79 309.642 315.284 310.442 314.62 311.1C314.28 313.61 315.27 316.27 314.44 318.68C313.22 322.22 309.38 323.16 306.36 324.84C306.314 328.862 305.349 332.82 303.538 336.412C301.726 340.003 299.117 343.133 295.91 345.56C295.188 347.293 294.789 349.143 294.73 351.02C294.811 352.53 295.202 354.008 295.88 355.36C296.757 355.048 297.707 355.003 298.61 355.23C299.333 355.478 300.009 355.847 300.61 356.32L303.3 358.2C303.855 357.936 304.466 357.809 305.08 357.83C306.24 357.961 307.355 358.355 308.34 358.98L322.22 366.41C322.828 366.72 323.399 367.099 323.92 367.54C324.03 364.85 324.15 362.15 324.29 359.46L326.18 322.82C326.54 315.82 326.9 308.88 327.53 301.93C327.98 296.93 328.62 291.85 331.19 287.58C336.02 279.58 346.38 276.79 355.79 277.47C355.555 277.007 355.426 276.499 355.41 275.98C355.395 275.462 355.494 274.946 355.7 274.47C356.289 273.576 357.131 272.88 358.12 272.47L371.99 264.97C372.975 264.345 374.09 263.951 375.25 263.82C375.864 263.799 376.475 263.926 377.03 264.19L379.72 262.31C380.321 261.837 380.997 261.468 381.72 261.22C382.623 260.993 383.573 261.038 384.45 261.35C385.128 259.998 385.519 258.52 385.6 257.01C385.541 255.133 385.142 253.283 384.42 251.55C381.213 249.123 378.604 245.993 376.792 242.402C374.981 238.81 374.016 234.852 373.97 230.83C370.97 229.15 367.11 228.21 365.89 224.67C365.06 222.26 366.05 219.6 365.71 217.09C365.046 216.432 364.54 215.632 364.23 214.75C363.37 212.26 364.49 209.48 364.03 206.88C363.697 205.752 363.443 204.603 363.27 203.44C362.179 205.495 361.34 207.674 360.77 209.93C359.36 215.6 359.61 221.54 358.77 227.31C358.47 229.31 357.9 231.45 356.21 232.51C354.9 233.32 353.21 233.26 351.8 233.85C349.44 234.85 348.13 237.44 347.8 239.98C347.47 242.52 347.87 245.08 347.87 247.64C347.87 254.33 344.66 261.25 338.82 264.51C331.13 268.8 321.58 265.96 313.27 263.04C316.973 261.704 320.262 259.422 322.81 256.42L313.66 254.6C318.981 252.138 323.902 248.892 328.26 244.97C329.889 243.68 331.168 242.002 331.98 240.09C332.98 237.29 332.05 234.09 332.98 231.28C334.53 226.48 340.42 224.65 343.42 220.6C346.05 217.06 346.14 212.31 346.13 207.9L346.08 191.12C346.08 186.29 346.39 180.73 350.24 177.8C354.53 174.52 360.61 176.39 366.01 176.35C371.7 176.35 377.12 173.99 382.78 173.35C388.12 172.73 397.03 176.48 396.88 180.71C399.853 181.244 402.861 181.559 405.88 181.65C408.57 181.65 411.35 181.23 413.88 182.1C415.701 182.844 417.374 183.907 418.82 185.24L429.82 194.24C433.52 197.24 437.51 200.81 437.82 205.57C437.904 207.014 437.693 208.46 437.2 209.82C438.475 211.455 439.262 213.417 439.47 215.48C439.72 218.78 438.12 221.94 436.28 224.69C433.517 228.791 430.145 232.446 426.28 235.53C425.375 240.276 423.186 244.682 419.95 248.27C420.675 251.757 421.623 255.195 422.79 258.56C422.818 258.618 422.841 258.678 422.86 258.74C423.795 258.794 424.696 259.109 425.46 259.65C426.248 260.239 426.972 260.91 427.62 261.65C427.969 261.102 428.479 260.676 429.08 260.43C430.56 259.84 432.22 260.51 433.67 261.17C437.558 262.779 441.249 264.829 444.67 267.28C444.67 267.07 444.67 266.87 444.67 266.67C444.75 262.28 444.97 257.9 445.2 253.52L447.09 216.88C447.45 209.88 447.81 202.94 448.44 195.99C448.89 190.99 449.53 185.91 452.1 181.64C456.93 173.64 467.29 170.85 476.7 171.53C476.465 171.067 476.336 170.559 476.32 170.04C476.305 169.522 476.404 169.006 476.61 168.53C477.199 167.636 478.041 166.94 479.03 166.53L492.99 158.97C493.975 158.345 495.09 157.951 496.25 157.82C496.864 157.799 497.475 157.926 498.03 158.19L500.72 156.31C501.321 155.837 501.997 155.468 502.72 155.22C503.623 154.993 504.573 155.038 505.45 155.35C506.128 153.998 506.519 152.52 506.6 151.01C506.541 149.133 506.142 147.283 505.42 145.55C502.213 143.123 499.604 139.993 497.792 136.402C495.981 132.81 495.016 128.852 494.97 124.83C491.97 123.15 488.11 122.21 486.89 118.67C486.06 116.26 487.05 113.6 486.71 111.09C486.046 110.432 485.54 109.632 485.23 108.75C484.37 106.26 485.49 103.48 485.03 100.88C484.77 99.45 484.03 98.05 484.32 96.63C484.614 95.6214 485.157 94.7031 485.9 93.96L495.73 82.32C497.9 79.76 500.14 77.13 503.12 75.6C510.26 71.93 518.81 75.6 526.83 75.6C529.52 75.6 532.3 75.18 534.83 76.05C536.651 76.7941 538.324 77.8575 539.77 79.19L550.77 88.19C554.47 91.19 558.46 94.76 558.77 99.52C558.854 100.964 558.643 102.41 558.15 103.77C559.425 105.405 560.212 107.367 560.42 109.43C560.67 112.73 559.07 115.89 557.23 118.64C554.467 122.741 551.095 126.396 547.23 129.48C546.325 134.226 544.136 138.632 540.9 142.22C541.625 145.707 542.573 149.145 543.74 152.51C543.768 152.568 543.791 152.628 543.81 152.69C544.745 152.744 545.646 153.059 546.41 153.6C547.198 154.189 547.922 154.86 548.57 155.6C548.919 155.052 549.429 154.626 550.03 154.38C551.51 153.79 553.17 154.46 554.62 155.12C559.03 157.12 563.52 159.21 567.11 162.46C568.417 163.647 569.519 165.043 570.37 166.59C575.399 165.888 580.51 167.071 584.72 169.91C592.28 175.09 595.39 184.55 598.02 193.33C599.98 199.903 601.943 206.47 603.91 213.03C606.49 221.65 609.09 230.37 609.69 239.35C610.2 246.99 609.25 254.63 608.21 262.22C608.46 261.96 608.71 261.71 608.99 261.46C612.58 258.21 617.07 256.14 621.48 254.12C622.93 253.46 624.59 252.79 626.07 253.38C626.671 253.626 627.181 254.052 627.53 254.6C628.178 253.86 628.902 253.189 629.69 252.6C630.454 252.059 631.355 251.744 632.29 251.69C632.309 251.628 632.332 251.568 632.36 251.51C633.527 248.145 634.475 244.707 635.2 241.22C631.964 237.632 629.775 233.226 628.87 228.48C625.005 225.396 621.633 221.741 618.87 217.64C617.03 214.89 615.43 211.73 615.68 208.43C615.888 206.367 616.675 204.405 617.95 202.77C617.457 201.41 617.246 199.964 617.33 198.52C617.69 193.76 621.68 190.2 625.33 187.19L636.33 178.19C637.777 176.857 639.449 175.794 641.27 175.05C643.81 174.18 646.59 174.6 649.27 174.6C652.289 174.509 655.297 174.194 658.27 173.66C658.12 169.43 667.03 165.66 672.37 166.3C678.02 166.95 683.45 169.3 689.14 169.3C694.54 169.3 700.62 167.47 704.91 170.75C708.76 173.68 709.08 179.24 709.07 184.07L709.02 200.85C709.02 205.26 709.1 210.01 711.73 213.55C714.59 217.41 720.06 219.25 721.91 223.55C724.17 217.74 727.23 212.35 732.29 208.88C736.5 206.041 741.611 204.858 746.64 205.56C747.491 204.013 748.593 202.617 749.9 201.43C753.49 198.18 757.98 196.11 762.39 194.09C763.84 193.43 765.5 192.76 766.98 193.35C767.581 193.596 768.091 194.022 768.44 194.57C769.088 193.83 769.812 193.159 770.6 192.57C771.364 192.029 772.265 191.714 773.2 191.66C773.219 191.598 773.242 191.538 773.27 191.48C774.437 188.115 775.385 184.677 776.11 181.19C772.874 177.602 770.685 173.196 769.78 168.45C765.915 165.366 762.543 161.711 759.78 157.61C757.94 154.86 756.34 151.7 756.59 148.4C756.798 146.337 757.585 144.375 758.86 142.74C758.367 141.38 758.156 139.934 758.24 138.49C758.6 133.73 762.59 130.17 766.24 127.16L777.24 118.16C778.687 116.827 780.36 115.764 782.18 115.02C784.72 114.15 787.5 114.57 790.18 114.57C793.199 114.479 796.207 114.164 799.18 113.63C799.03 109.4 807.94 105.63 813.28 106.27C818.93 106.92 824.36 109.27 830.05 109.27C835.45 109.27 841.53 107.44 845.82 110.72C849.67 113.65 849.99 119.21 849.98 124.04L849.93 140.82C849.93 145.23 850.01 149.98 852.64 153.52C855.64 157.57 861.53 159.4 863.08 164.2C863.98 167.03 863.08 170.2 864.08 173.01C864.953 174.981 866.325 176.69 868.06 177.97C870.296 179.993 872.687 181.839 875.21 183.49C875.621 182.162 876.26 180.917 877.1 179.81C876.607 178.45 876.396 177.004 876.48 175.56C876.84 170.8 880.83 167.24 884.48 164.23L895.48 155.23C896.927 153.897 898.599 152.834 900.42 152.09C902.96 151.22 905.74 151.64 908.42 151.64C916.42 151.64 924.99 147.99 932.13 151.64C935.13 153.17 937.35 155.8 939.52 158.36L949.35 170C950.093 170.743 950.636 171.661 950.93 172.67C951.21 174.09 950.48 175.49 950.22 176.92C949.76 179.52 950.88 182.3 950.02 184.79C949.71 185.672 949.204 186.472 948.54 187.13C948.2 189.64 949.19 192.3 948.36 194.71C947.14 198.25 943.3 199.19 940.28 200.87C940.234 204.892 939.269 208.85 937.458 212.442C935.646 216.033 933.037 219.163 929.83 221.59C929.108 223.323 928.709 225.173 928.65 227.05C928.731 228.56 929.122 230.038 929.8 231.39C930.677 231.078 931.627 231.033 932.53 231.26C933.253 231.508 933.929 231.877 934.53 232.35L937.22 234.23C937.775 233.966 938.386 233.839 939 233.86C940.16 233.991 941.275 234.385 942.26 235.01L956.14 242.44C957.129 242.85 957.972 243.546 958.56 244.44C958.766 244.916 958.865 245.432 958.85 245.95C958.834 246.469 958.705 246.977 958.47 247.44C967.88 246.76 978.24 249.55 983.07 257.55C985.64 261.82 986.28 266.94 986.73 271.9C987.36 278.85 987.73 285.82 988.08 292.79L989.97 329.43C990.2 333.81 990.42 338.19 990.5 342.58C990.727 346.004 990.359 349.442 989.41 352.74C988.2 356.29 985.8 359.28 983.41 362.2C981.02 365.12 978.03 368.14 974.52 367.28C973.082 366.81 971.776 366.004 970.71 364.93L962.66 358.02C961.08 356.66 959.51 355.3 957.95 353.91C957.88 363.56 957.66 373.2 957.16 382.84C957 385.89 956.75 389.07 955.31 391.73C958.261 400.9 959.897 410.441 960.17 420.07C960.245 427.924 959.804 435.774 958.85 443.57C959.69 441.78 960.53 439.99 961.38 438.16C1004.85 345.31 1054.96 211.49 1037.9 117.16Z" fill="#F2F2F2"/>
<path id="Vector_26" d="M85.55 293.84L83 303.74C83.5 303.11 84 302.49 84.51 301.87C84.4663 299.39 84.9503 296.929 85.93 294.65C87 292.49 88.78 290.79 90.26 288.9C90.0452 289.078 89.8216 289.245 89.59 289.4C88.4949 289.865 87.482 290.503 86.59 291.29C86.0577 292.052 85.7024 292.923 85.55 293.84V293.84Z" fill="#F2F2F2"/>
<path id="Vector_27" d="M698.81 338.87C699.31 339.49 699.81 340.11 700.32 340.74L697.77 330.84C697.605 329.92 697.236 329.048 696.69 328.29C695.798 327.503 694.785 326.865 693.69 326.4C693.458 326.245 693.235 326.078 693.02 325.9C694.5 327.79 696.28 329.49 697.35 331.65C698.343 333.926 698.841 336.387 698.81 338.87V338.87Z" fill="#F2F2F2"/>
<path id="Vector_28" d="M855.83 399.31C856.13 399.04 856.44 398.79 856.76 398.54C855.87 397.32 855.01 396.07 854.22 394.77C854.197 394.721 854.17 394.674 854.14 394.63C854.53 395.87 854.95 397.1 855.42 398.32C855.55 398.65 855.66 398.97 855.83 399.31Z" fill="#F2F2F2"/>
<path id="Vector_29" d="M595.14 417.63C595.53 418.87 595.95 420.1 596.42 421.32C596.55 421.65 596.69 421.98 596.83 422.32C597.13 422.05 597.44 421.8 597.76 421.55C596.87 420.33 596.01 419.08 595.22 417.78C595.198 417.728 595.171 417.678 595.14 417.63Z" fill="#F2F2F2"/>
<path id="Vector_30" d="M681.36 223.85C681.314 227.872 680.349 231.83 678.538 235.422C676.726 239.013 674.117 242.143 670.91 244.57C670.188 246.303 669.789 248.153 669.73 250.03C669.811 251.54 670.202 253.018 670.88 254.37C671.757 254.058 672.707 254.013 673.61 254.24C674.333 254.488 675.009 254.857 675.61 255.33L678.3 257.21C678.855 256.946 679.466 256.819 680.08 256.84C681.24 256.971 682.355 257.365 683.34 257.99L697.22 265.42C698.208 265.83 699.051 266.526 699.64 267.42C699.846 267.896 699.945 268.412 699.93 268.93C699.914 269.449 699.785 269.957 699.55 270.42C702.526 270.198 705.519 270.343 708.46 270.85C709.526 265.265 710.911 259.746 712.61 254.32C709.289 250.525 707.474 245.643 707.51 240.6C707.51 238.04 707.92 235.47 707.58 232.94C707.24 230.41 705.93 227.78 703.58 226.81C702.15 226.22 700.48 226.28 699.17 225.47C697.48 224.41 696.91 222.25 696.61 220.27C695.74 214.5 695.99 208.56 694.61 202.89C694.04 200.634 693.201 198.455 692.11 196.4C691.937 197.563 691.683 198.712 691.35 199.84C690.89 202.44 692.01 205.22 691.15 207.71C690.84 208.592 690.334 209.392 689.67 210.05C689.33 212.56 690.32 215.22 689.49 217.63C688.22 221.23 684.38 222.17 681.36 223.85Z" fill="#F2F2F2"/>
<path id="Vector_31" d="M735.95 306.2C733.59 322.34 731.31 339.2 735.34 354.84C735.63 353.891 736.156 353.03 736.87 352.34C739.53 349.07 740.58 344.8 741.37 340.66C746.23 315.09 743.89 288.9 742.79 262.78L740.66 265.24C739.866 266.049 739.192 266.969 738.66 267.97C738.155 269.158 737.881 270.43 737.85 271.72C737.653 274.786 737.757 277.864 738.16 280.91C739.146 287.606 738.752 294.433 737 300.97C736.527 302.686 736.176 304.434 735.95 306.2V306.2Z" fill="#F2F2F2"/>
<path id="Vector_32" d="M720.73 388.97C720.029 389.555 719.207 389.976 718.323 390.203C717.439 390.429 716.516 390.456 715.62 390.28C714.182 389.81 712.876 389.004 711.81 387.93L703.81 381.02C702.23 379.66 700.66 378.3 699.1 376.91C699.03 386.56 698.81 396.2 698.31 405.84C698.15 408.89 697.9 412.07 696.46 414.73C699.411 423.9 701.047 433.441 701.32 443.07C701.56 452.18 700.58 461.27 699.59 470.32C698.01 484.987 696.423 499.653 694.83 514.32C694.321 520.419 693.362 526.472 691.96 532.43C690.58 537.74 688.51 542.84 686.71 548.02L696.92 547.91L709.92 547.77H711.52L733.52 547.53C733.525 547.51 733.525 547.49 733.52 547.47C735.22 537.84 739.8 528.47 738.89 518.79C738.29 512.28 735.27 506.29 733.19 500.1C724.11 473.04 733.19 442.88 726.62 415.1C725.11 408.72 722.83 401.83 725.62 395.88L721.45 394.6C722.02 393.29 722.6 391.97 723.18 390.66C722.286 390.218 721.461 389.649 720.73 388.97V388.97Z" fill="#F2F2F2"/>
<path id="Vector_33" d="M640.49 528.25C640.53 535.01 640.573 541.77 640.62 548.53H641.06L640.49 528.25Z" fill="#F2F2F2"/>
<path id="Vector_34" d="M899.49 505.25C899.557 515.45 899.623 525.65 899.69 535.85L900.35 535.47C900.057 525.403 899.77 515.33 899.49 505.25Z" fill="#F2F2F2"/>
<path id="Vector_35" d="M875.25 189.1L873.56 189.44C874.505 190.541 875.557 191.546 876.7 192.44C876.096 191.383 875.61 190.263 875.25 189.1V189.1Z" fill="#F2F2F2"/>
<path id="Vector_36" d="M781.49 468.25L781.79 512.31C781.933 515.874 781.708 519.442 781.12 522.96C780.52 525.89 779.42 528.7 778.79 531.63C777.9 535.83 778.01 540.16 778.05 544.45C778.05 545.32 778.05 546.18 778.05 547.04L783.72 546.98C782.98 520.74 782.237 494.497 781.49 468.25Z" fill="#F2F2F2"/>
<path id="Vector_37" d="M957.81 315.87C958.31 316.49 958.81 317.11 959.32 317.74L956.77 307.84C956.605 306.92 956.236 306.048 955.69 305.29C954.798 304.503 953.785 303.865 952.69 303.4C952.458 303.245 952.235 303.078 952.02 302.9C953.5 304.79 955.28 306.49 956.35 308.65C957.343 310.926 957.841 313.387 957.81 315.87V315.87Z" fill="#F2F2F2"/>
<path id="Vector_38" d="M822.36 163.85C822.314 167.872 821.349 171.83 819.538 175.422C817.726 179.013 815.117 182.143 811.91 184.57C811.188 186.303 810.789 188.153 810.73 190.03C810.811 191.54 811.202 193.018 811.88 194.37C812.757 194.058 813.707 194.013 814.61 194.24C815.333 194.488 816.009 194.857 816.61 195.33L819.3 197.21C819.855 196.946 820.466 196.819 821.08 196.84C822.24 196.971 823.355 197.365 824.34 197.99L838.22 205.42C839.208 205.83 840.051 206.526 840.64 207.42C840.846 207.896 840.945 208.412 840.93 208.93C840.914 209.449 840.785 209.957 840.55 210.42C849.96 209.74 860.32 212.53 865.15 220.53C867.72 224.8 868.36 229.92 868.81 234.88C868.89 235.8 868.96 236.71 869.03 237.62C872.46 234.82 876.56 232.91 880.6 231.06C882.05 230.4 883.71 229.73 885.19 230.32C885.791 230.566 886.301 230.992 886.65 231.54C887.298 230.8 888.022 230.129 888.81 229.54C889.574 228.999 890.475 228.684 891.41 228.63C891.429 228.568 891.452 228.508 891.48 228.45C892.647 225.085 893.595 221.647 894.32 218.16C891.084 214.572 888.895 210.166 887.99 205.42C884.955 202.984 882.223 200.194 879.85 197.11C872.38 199.53 864.26 201.21 857.56 197.47C851.72 194.21 848.56 187.29 848.56 180.6C848.56 178.04 848.97 175.47 848.63 172.94C848.29 170.41 846.98 167.78 844.63 166.81C843.2 166.22 841.53 166.28 840.22 165.47C838.53 164.41 837.96 162.25 837.66 160.27C836.79 154.5 837.04 148.56 835.66 142.89C835.09 140.634 834.251 138.455 833.16 136.4C832.987 137.563 832.733 138.712 832.4 139.84C831.94 142.44 833.06 145.22 832.2 147.71C831.89 148.592 831.384 149.392 830.72 150.05C830.38 152.56 831.37 155.22 830.54 157.63C829.22 161.23 825.38 162.17 822.36 163.85Z" fill="#F2F2F2"/>
<path id="Vector_39" d="M253.38 346H804.78C809.787 346 814.59 347.989 818.13 351.53C821.671 355.071 823.66 359.873 823.66 364.88V431.21H234.5V364.9C234.497 362.419 234.984 359.962 235.931 357.669C236.879 355.376 238.269 353.292 240.023 351.537C241.776 349.782 243.858 348.389 246.15 347.439C248.442 346.489 250.899 346 253.38 346V346Z" fill="#3F3D56"/>
<path id="Vector_40" opacity="0.1" d="M253.38 346H804.78C809.787 346 814.59 347.989 818.13 351.53C821.671 355.071 823.66 359.873 823.66 364.88V431.21H234.5V364.9C234.497 362.419 234.984 359.962 235.931 357.669C236.879 355.376 238.269 353.292 240.023 351.537C241.776 349.782 243.858 348.389 246.15 347.439C248.442 346.489 250.899 346 253.38 346V346Z" fill="black"/>
<path id="Vector_41" d="M703.76 423.32V547L680.01 547.26L678.33 547.28L657.2 547.51H656.55L641.74 547.67L614.8 547.97L526.32 548.93L513.91 549.06L489.54 549.33L488.42 549.34L467.62 549.57L410.06 550.19L396.53 550.34L354.4 550.8V423.32H703.76Z" fill="#3F3D56"/>
<path id="Vector_42" opacity="0.1" d="M703.76 423.32V547L680.01 547.26L678.33 547.28L657.2 547.51H656.55L641.74 547.67L614.8 547.97L526.32 548.93L513.91 549.06L489.54 549.33L488.42 549.34L467.62 549.57L410.06 550.19L396.53 550.34L354.4 550.8V423.32H703.76Z" fill="black"/>
<path id="Vector_43" d="M234.5 422.71H823.66V437.26C823.66 442.44 821.602 447.407 817.94 451.07C814.277 454.732 809.31 456.79 804.13 456.79H255.23C249.732 456.79 244.459 454.606 240.572 450.718C236.684 446.831 234.5 441.558 234.5 436.06V422.71Z" fill="#3F3D56"/>
<path id="Vector_44" d="M412.83 439.75C436.026 439.75 454.83 435.662 454.83 430.62C454.83 425.578 436.026 421.49 412.83 421.49C389.634 421.49 370.83 425.578 370.83 430.62C370.83 435.662 389.634 439.75 412.83 439.75Z" fill="#BB0000"/>
<path id="Vector_45" d="M409.39 431.64L408.56 388.17C408.38 378.45 408.73 367.43 415.96 360.92C420.53 356.81 427.39 355.04 430.26 349.61C431.82 346.61 431.85 343.14 431.84 339.8C431.84 320.067 431.803 300.34 431.73 280.62" stroke="#BB0000" stroke-width="6" stroke-miterlimit="10"/>
<path id="Vector_46" d="M432.22 262.03H428.74C424.322 262.03 420.74 265.612 420.74 270.03V291.77C420.74 296.188 424.322 299.77 428.74 299.77H432.22C436.638 299.77 440.22 296.188 440.22 291.77V270.03C440.22 265.612 436.638 262.03 432.22 262.03Z" fill="#BB0000"/>
<path id="hand" d="M585.37 362.63C578.97 355.16 572.14 348.08 565.31 341L551.46 326.63L538.88 313.58L478.35 250.8C470.99 243.16 463.27 235.28 453.35 231.54C443.43 227.8 430.59 229.47 424.58 238.22C423.569 239.584 422.843 241.138 422.446 242.79C422.049 244.441 421.989 246.155 422.27 247.83C422.97 251.08 425.27 253.73 427.76 255.98C439.56 266.76 455.48 271.53 469.57 279.08C474.306 281.436 478.634 284.535 482.39 288.26C485.463 291.747 488.145 295.56 490.39 299.63L525.78 358.68C527.972 362.543 530.473 366.222 533.26 369.68C535.52 372.34 538.11 374.68 540.5 377.25C546.15 383.25 550.59 390.36 556.02 396.6C563.57 405.3 572.9 412.24 582.15 419.11C584.06 420.53 586.15 422 588.5 422.11C591.61 422.27 594.3 420.11 596.63 418.04C600.42 414.69 608.12 409.88 610.2 405.22C612.03 401.09 608.8 396.92 606.85 393.28C600.808 382.324 593.607 372.048 585.37 362.63V362.63Z" fill="#FBBEBE"/>
<path id="Vector_47" d="M614.8 547.97L526.32 548.97L513.91 549.1L489.54 549.37H488.42L467.62 549.6C469.447 543.571 471.802 537.715 474.66 532.1C476.493 528.586 478.632 525.24 481.05 522.1C485.51 522.5 489.96 522.86 494.42 523.22C504.753 524.027 515.087 524.763 525.42 525.43C551.58 527.15 577.69 528.63 603.94 530.97C605.71 531.13 607.6 531.34 608.94 532.49C609.736 533.28 610.359 534.227 610.77 535.27C612.608 539.33 613.961 543.593 614.8 547.97V547.97Z" fill="#3F3D56"/>
<path id="Vector_48" d="M553.34 305.91C576.14 298.65 587.06 294.56 607.34 281.79C602.91 282.53 609.34 277.17 604.91 276.56C600.48 275.95 596.02 273.76 593.76 269.88C592.29 267.36 591.86 264.39 591.47 261.5L589.31 245.67C589.57 247.55 548.02 247.79 547.72 259.5C547.56 265.62 551.91 272.61 553.04 278.67C554.709 287.665 554.811 296.881 553.34 305.91V305.91Z" fill="#FBBEBE"/>
<path id="Vector_49" opacity="0.1" d="M553.34 305.91C576.14 298.65 587.06 294.56 607.34 281.79C602.91 282.53 609.34 277.17 604.91 276.56C600.48 275.95 596.02 273.76 593.76 269.88C592.29 267.36 591.86 264.39 591.47 261.5L589.31 245.67C589.57 247.55 548.02 247.79 547.72 259.5C547.56 265.62 551.91 272.61 553.04 278.67C554.709 287.665 554.811 296.881 553.34 305.91V305.91Z" fill="black"/>
<path id="Vector_50" d="M646.73 448.89C646.73 451.53 646.73 454.16 646.6 456.79C646.1 468.09 644.3 479.35 643.19 490.62C641.31 509.62 641.39 528.62 641.74 547.67L614.8 547.96L526.32 548.96L513.91 549.09L489.54 549.36C489.31 548.82 489.06 548.29 488.79 547.78C488.794 547.757 488.794 547.733 488.79 547.71C485.57 541.46 479.72 537.11 474.7 532.13C472.278 529.86 470.181 527.265 468.47 524.42C479.47 505.48 489.58 485.76 496.82 465.07C497.82 462.32 498.68 459.54 499.82 456.82C500.541 454.956 501.393 453.144 502.37 451.4C504.14 448.34 506.37 445.52 507.67 442.21C508.639 439.275 509.158 436.21 509.21 433.12C509.25 432.5 509.28 431.88 509.3 431.26C509.42 428.593 509.47 425.957 509.45 423.35C509.45 423.14 509.45 422.94 509.45 422.74C509.45 419.573 509.337 416.413 509.11 413.26C508.62 406.17 507.68 399.05 508.55 392C510.19 378.72 518.03 367.23 523.63 355C524.17 353.84 524.69 352.69 525.17 351.52C525.92 349.72 526.61 347.88 527.27 346.03C531.04 335.37 533.83 324.11 540.73 315.44C541.31 314.7 541.95 313.97 542.6 313.26C545.5 310.16 549.04 307.45 550.75 303.57C552.46 299.69 552.96 294.76 548.84 293.77C550.767 292.397 552.6 291.11 554.34 289.91C567.81 280.65 576.44 276.34 594.34 272.4C594.73 272.31 595.12 272.24 595.51 272.17C596.646 271.919 597.824 271.919 598.96 272.17C600.145 272.544 601.25 273.134 602.22 273.91C613.05 281.51 623.22 287.37 627.72 299.81C629.29 304.14 634.27 311.1 635.02 315.64C636.8 326.37 641.43 336.05 644.57 346.07C646.588 352.003 647.632 358.223 647.66 364.49C647.42 382.04 644.01 399.49 644.51 417.02C644.57 418.92 644.67 420.82 644.8 422.71C644.8 422.91 644.8 423.12 644.8 423.32C644.98 425.96 645.23 428.6 645.47 431.23C646.04 437.11 646.66 442.97 646.73 448.89Z" fill="#565171"/>
<path id="Vector_51" d="M564.83 405.08C564.83 405.2 564.83 405.34 564.83 405.46C564.6 409.15 564.38 412.85 564.05 416.55C564.05 417.19 563.94 417.84 563.88 418.5C563.74 419.9 563.6 421.31 563.43 422.71C563.43 422.91 563.43 423.11 563.36 423.32C563.04 425.97 562.65 428.61 562.15 431.23C561.65 433.85 561.03 436.61 560.28 439.23C558.57 445.16 556.2 450.89 554.28 456.76C553.64 458.76 553.04 460.76 552.54 462.76C551.7 466.16 551.14 469.61 550.15 472.96C548.763 477.192 547.031 481.302 544.97 485.25L525.45 525.36C521.91 532.627 518.37 539.89 514.83 547.15C514.54 547.76 514.24 548.37 513.94 548.99L489.57 549.26H488.45C488.58 548.72 488.7 548.2 488.82 547.67C490.707 539.49 492.59 531.313 494.47 523.14C496.35 514.967 498.197 506.91 500.01 498.97C501.343 493.077 502.7 487.187 504.08 481.3C505.56 474.82 507.05 468.333 508.55 461.84C508.94 460.15 509.33 458.47 509.71 456.78C511.55 448.89 513.45 441.01 515.71 433.24C515.9 432.57 516.11 431.89 516.3 431.24C517.12 428.58 517.97 425.94 518.89 423.33C518.95 423.12 519.02 422.91 519.09 422.72C521.305 416.291 523.917 410.006 526.91 403.9C526.97 403.75 527.04 403.63 527.11 403.48C527.18 403.33 527.11 403.48 527.11 403.48C527.94 401.8 528.82 400.14 529.72 398.48C531.72 394.87 533.42 389.88 537.89 389.16C541.89 388.52 547.78 390.76 552.51 392.4C553.8 392.85 554.98 393.24 556.03 393.53C559.03 394.36 562.31 395.43 563.87 398.12C565.1 400.16 564.98 402.71 564.83 405.08Z" fill="#FBBEBE"/>
<path id="Vector_52" opacity="0.1" d="M541.85 322.06C536.85 327.15 533.96 333.98 531.78 340.8C525.475 360.544 523.792 381.472 526.86 401.97C527.2 404.18 527.73 406.62 529.58 407.89C531.66 409.32 534.67 408.56 536.58 406.84C538.49 405.12 539.41 402.67 540.34 400.32C541.97 404.19 543.69 408.18 546.74 411.07C553.07 417.07 563.22 416.75 570.53 421.52C580.629 400.83 589.517 379.571 597.15 357.85C598.482 354.549 599.308 351.067 599.6 347.52C599.627 344.325 599.018 341.157 597.81 338.2C593.81 327.79 584.49 319.79 573.81 316.7C563.56 313.73 549.73 314.1 541.85 322.06Z" fill="black"/>
<path id="Vector_53" d="M540.66 319.62C535.66 324.71 532.77 331.55 530.58 338.36C524.27 358.113 522.59 379.053 525.67 399.56C526 401.77 526.54 404.21 528.38 405.47C530.46 406.91 533.47 406.14 535.33 404.47C537.19 402.8 538.17 400.31 539.09 397.95C540.73 401.82 542.44 405.81 545.49 408.71C551.82 414.71 561.97 414.39 569.29 419.15C579.385 398.459 588.27 377.2 595.9 355.48C597.241 352.186 598.067 348.705 598.35 345.16C598.381 341.962 597.772 338.79 596.56 335.83C592.56 325.42 583.24 317.43 572.56 314.33C562.34 311.3 548.51 311.66 540.66 319.62Z" fill="#565171"/>
<path id="Vector_54" d="M560.73 271.76C584.257 271.76 603.33 252.687 603.33 229.16C603.33 205.633 584.257 186.56 560.73 186.56C537.203 186.56 518.13 205.633 518.13 229.16C518.13 252.687 537.203 271.76 560.73 271.76Z" fill="#FBBEBE"/>
<path id="Vector_55" d="M518.19 209.97C520.907 206.88 524.603 204.818 528.66 204.13C528.3 208.46 531.97 212.13 535.92 213.97C539.87 215.81 544.31 216.38 548.2 218.3C555.14 221.72 560.41 229.25 568.14 229.53C570.82 229.62 574.14 229.03 575.66 231.21C576.231 232.184 576.534 233.291 576.54 234.42L577.28 242.5C579.42 243.75 582.03 242.29 584.44 241.73C586.211 241.32 588.061 241.416 589.781 242.006C591.5 242.596 593.019 243.657 594.165 245.067C595.311 246.478 596.038 248.182 596.264 249.986C596.489 251.79 596.204 253.621 595.44 255.27C598.571 255.717 601.763 255.404 604.747 254.356C607.731 253.308 610.419 251.557 612.583 249.251C614.747 246.945 616.324 244.151 617.179 241.107C618.035 238.062 618.145 234.856 617.5 231.76C617.003 230.139 616.744 228.455 616.73 226.76C617.04 222.9 620.73 220.35 622.85 217.11C625.78 212.61 625.56 206.63 623.6 201.63C621.64 196.63 618.18 192.4 614.77 188.26L602.66 173.54C597.07 166.76 590.42 159.42 581.66 158.97C575.45 158.66 569.61 161.97 563.42 162.55C554.42 163.4 544.97 158.55 536.61 161.94C530.61 164.37 527.05 170.34 523.87 175.94C521.21 180.61 518.52 185.37 517.41 190.62C515.6 199.16 518.16 208.07 517.18 216.74L518.19 209.97Z" fill="#3F3D56"/>
<path id="Vector_56" d="M42.14 506.7C41.8913 507.191 41.6107 507.666 41.3 508.12L40.4 506.86L42.14 506.7Z" fill="#BB0000"/>
</g>
<defs>
<clipPath id="clip0">
<rect width="1041.32" height="553.94" fill="white"/>
</clipPath>
</defs>
</svg>
