<svg width="892" height="587" viewBox="0 0 892 587" fill="none" xmlns="http://www.w3.org/2000/svg">
<rect width="892" height="587" fill="#E5E5E5"/>
<g id="undraw_stranded_traveler_pdbw 1" clip-path="url(#clip0)">
<path id="Vector" d="M214.726 586.805C333.317 586.805 429.453 582.328 429.453 576.805C429.453 571.282 333.317 566.805 214.726 566.805C96.1363 566.805 0 571.282 0 576.805C0 582.328 96.1363 586.805 214.726 586.805Z" fill="#E6E6E6"/>
<path id="Vector_2" d="M441.81 28C439.58 28.0024 437.442 28.8894 435.865 30.4664C434.288 32.0434 433.401 34.1815 433.398 36.4117V348.256C433.401 350.487 434.288 352.625 435.865 354.202C437.442 355.779 439.58 356.667 441.81 356.669H882.6C884.831 356.667 886.969 355.779 888.546 354.202C890.123 352.625 891.01 350.487 891.012 348.256V36.4117C891.01 34.1815 890.123 32.0434 888.546 30.4664C886.969 28.8894 884.83 28.0024 882.6 28H441.81Z" fill="#E6E6E6"/>
<path id="Vector_3" d="M442.861 347.205H881.549V37.4636H442.861V347.205Z" fill="white" fill-opacity="0.28"/>
<g id="pointer">
<path id="Vector_4" d="M870.298 76.9487C878.889 68.4914 878.997 54.6712 870.539 46.0805C862.082 37.4899 848.262 37.3817 839.671 45.8391C831.08 54.2965 830.972 68.1166 839.43 76.7073C847.887 85.298 861.707 85.4061 870.298 76.9487Z" fill="white"/>
<path id="Vector_5" d="M854.84 29.7816C846.656 29.819 838.821 33.1061 833.06 38.9198C827.299 44.7335 824.084 52.5976 824.121 60.7821C824.199 77.8254 855.314 133.651 855.314 133.651C855.314 133.651 885.918 77.5438 885.841 60.5005C885.803 52.316 882.516 44.4815 876.703 38.7206C870.889 32.9597 863.025 29.7443 854.84 29.7816V29.7816ZM855.05 75.6948C852.221 75.7077 849.453 74.8816 847.094 73.3209C844.735 71.7602 842.892 69.5351 841.797 66.9269C840.703 64.3187 840.406 61.4446 840.946 58.668C841.485 55.8914 842.835 53.337 844.826 51.3278C846.817 49.3187 849.359 47.9451 852.13 47.3806C854.902 46.8161 857.779 47.0862 860.397 48.1566C863.015 49.2271 865.257 51.0499 866.839 53.3945C868.421 55.7391 869.272 58.5002 869.285 61.3287C869.303 65.1215 867.812 68.7658 865.143 71.46C862.473 74.1542 858.843 75.6774 855.05 75.6948V75.6948Z" fill="#BB0000"/>
</g>
<path id="Vector_6" d="M317.988 424.401C315.295 424.402 312.684 425.327 310.591 427.021C308.497 428.716 307.049 431.078 306.488 433.712H322.889V474.873H306.488C307.093 477.715 308.729 480.232 311.08 481.939C313.431 483.646 316.331 484.423 319.221 484.118C322.111 483.814 324.785 482.45 326.729 480.291C328.673 478.131 329.749 475.328 329.749 472.423V436.162C329.749 434.617 329.445 433.088 328.854 431.661C328.263 430.234 327.396 428.938 326.304 427.846C325.212 426.754 323.916 425.888 322.489 425.297C321.062 424.706 319.533 424.401 317.988 424.401V424.401Z" fill="#3F3D56"/>
<path id="Vector_7" d="M185.759 352.37C180.153 352.376 174.779 354.606 170.815 358.57C166.851 362.534 164.621 367.908 164.615 373.514V536.05C164.621 541.656 166.851 547.031 170.815 550.995C174.779 554.959 180.153 557.188 185.759 557.195H288.514C294.12 557.188 299.494 554.959 303.458 550.995C307.422 547.031 309.652 541.656 309.658 536.05V373.514C309.652 367.908 307.422 362.534 303.458 358.57C299.494 354.606 294.12 352.376 288.514 352.37H185.759Z" fill="#3F3D56"/>
<path id="Vector_8" d="M174.905 576.305C180.859 576.305 185.685 571.479 185.685 565.525C185.685 559.571 180.859 554.745 174.905 554.745C168.951 554.745 164.125 559.571 164.125 565.525C164.125 571.479 168.951 576.305 174.905 576.305Z" fill="#3F3D56"/>
<path id="Vector_9" d="M295.448 576.305C301.402 576.305 306.228 571.479 306.228 565.525C306.228 559.571 301.402 554.745 295.448 554.745C289.494 554.745 284.668 559.571 284.668 565.525C284.668 571.479 289.494 576.305 295.448 576.305Z" fill="#3F3D56"/>
<path id="Vector_10" d="M188.625 350.9H182.745V557.685H188.625V350.9Z" fill="#4D4D4D"/>
<path id="Vector_11" d="M205.286 350.9H199.406V557.685H205.286V350.9Z" fill="#4D4D4D"/>
<path id="Vector_12" d="M221.946 350.9H216.066V557.685H221.946V350.9Z" fill="#4D4D4D"/>
<path id="Vector_13" d="M238.607 350.9H232.726V557.685H238.607V350.9Z" fill="#4D4D4D"/>
<path id="Vector_14" d="M255.267 350.9H249.387V557.685H255.267V350.9Z" fill="#4D4D4D"/>
<path id="Vector_15" d="M271.927 350.9H266.047V557.685H271.927V350.9Z" fill="#4D4D4D"/>
<path id="Vector_16" d="M288.588 350.9H282.708V557.685H288.588V350.9Z" fill="#4D4D4D"/>
<path id="Vector_17" d="M287.008 335.219C290.85 328.684 292.876 321.24 292.875 313.659H188.748C188.747 321.24 190.773 328.684 194.615 335.219H173.435C173.435 346.586 183.033 355.8 194.873 355.8H221.109C225.517 357.104 230.09 357.764 234.686 357.76H246.937C251.533 357.764 256.107 357.104 260.514 355.8H286.75C298.59 355.8 308.188 346.586 308.188 335.219H287.008Z" fill="#2F2E41"/>
<path id="Vector_18" d="M210.092 483.693C210.285 485.782 209.841 487.881 208.817 489.713C207.794 491.545 206.239 493.024 204.358 493.954L204.306 493.983C194.504 499.574 186.484 503.962 176.966 503.154C176.007 503.069 175.08 502.764 174.258 502.262C173.436 501.76 172.741 501.075 172.228 500.261C171.714 499.447 171.395 498.525 171.296 497.567C171.197 496.609 171.32 495.642 171.656 494.739L185.195 468.993C193.06 459.83 198.602 459.821 208.226 467.522L210.092 483.693Z" fill="#2F2E41"/>
<path id="Vector_19" d="M266.141 483.693C265.948 485.782 266.392 487.881 267.416 489.713C268.439 491.545 269.994 493.024 271.875 493.954L271.927 493.983C281.729 499.574 289.749 503.962 299.267 503.154C300.226 503.069 301.153 502.764 301.975 502.262C302.797 501.76 303.492 501.075 304.005 500.261C304.519 499.447 304.838 498.525 304.937 497.567C305.036 496.609 304.913 495.642 304.577 494.739L291.038 468.993C283.173 459.83 277.631 459.821 268.007 467.522L266.141 483.693Z" fill="#2F2E41"/>
<path id="Vector_20" d="M226.793 180.375H189.12C187.413 180.378 185.751 179.831 184.38 178.815C183.008 177.799 182.001 176.368 181.507 174.735C180.347 170.869 178.849 167.117 178.825 163.715C178.733 150.511 179.389 142.106 185.195 136.764C204.542 122.095 218.559 124.793 231.746 140.195C236.376 148.799 235.187 161.64 232.683 175.44C232.436 176.822 231.71 178.074 230.634 178.976C229.557 179.878 228.198 180.373 226.793 180.375Z" fill="#2F2E41"/>
<path id="Vector_21" d="M207.246 197.036C221.318 197.036 232.726 185.628 232.726 171.555C232.726 157.483 221.318 146.075 207.246 146.075C193.173 146.075 181.765 157.483 181.765 171.555C181.765 185.628 193.173 197.036 207.246 197.036Z" fill="#FFB9B9"/>
<path id="Vector_22" d="M226.846 222.517L191.565 223.497L188.625 185.276L222.926 184.296L226.846 222.517Z" fill="#FFB9B9"/>
<path id="Vector_23" d="M286.628 313.659L262.283 324.927C258.204 334.604 252.58 334.325 245.467 324.439C238.677 336.33 224.053 329.204 216.908 324.011C212.302 321.663 207.208 320.434 202.039 320.424C196.87 320.413 191.771 321.621 187.155 323.949L161.185 208.796C169.19 201.914 179.857 197.591 190.095 194.586L210.186 219.576L223.906 195.076C233.442 187.409 246.837 187.395 261.147 189.196L269.502 233.865C263.992 269.102 272.278 286.775 286.628 313.659Z" fill="#BB0000"/>
<path id="Vector_24" d="M206.266 465.562L185.685 467.522L155.197 332.775C154.504 329.655 154.52 326.419 155.245 323.305C155.969 320.192 157.384 317.281 159.384 314.788C161.384 312.294 163.919 310.282 166.801 308.899C169.683 307.516 172.838 306.799 176.035 306.799V306.799C179.074 306.799 182.078 307.448 184.847 308.702C187.615 309.957 190.083 311.788 192.087 314.074C194.09 316.359 195.582 319.046 196.464 321.955C197.345 324.863 197.595 327.927 197.197 330.94L193.525 358.74L206.266 465.562Z" fill="#2F2E41"/>
<path id="Vector_25" d="M268.007 467.522L288.588 466.542L319.076 332.775C319.769 329.655 319.753 326.419 319.029 323.305C318.304 320.192 316.889 317.281 314.889 314.788C312.889 312.294 310.354 310.282 307.472 308.899C304.59 307.516 301.435 306.799 298.238 306.799V306.799C295.199 306.799 292.195 307.448 289.427 308.702C286.658 309.957 284.19 311.788 282.186 314.074C280.183 316.359 278.691 319.046 277.809 321.955C276.928 324.863 276.678 327.927 277.076 330.94L280.748 358.74L268.007 467.522Z" fill="#2F2E41"/>
<path id="Vector_26" d="M334.901 274.144L317.498 319.049C307.984 311.774 300.312 310.781 289.758 314.639C286.84 314.234 284.668 307.819 284.668 304.872C284.668 303.353 285.253 301.893 286.303 300.794C287.352 299.696 288.785 299.045 290.302 298.976L306.228 298.252C309.142 290.622 310.913 282.605 311.483 274.458C319.125 272.29 327.204 272.181 334.901 274.144V274.144Z" fill="#FFB9B9"/>
<path id="Vector_27" d="M336.609 275.438L340.852 259.607C342.704 253.817 342.522 247.568 340.336 241.896C338.149 236.224 334.09 231.469 328.83 228.421L261.147 189.196L260.167 232.317L310.148 253.877C311.529 261.214 311.977 268.695 311.483 276.144C319.28 273.827 328.793 273.335 336.609 275.438Z" fill="#BB0000"/>
<path id="Vector_28" d="M232.236 157.345L205.776 162.245C203.33 162.245 200.909 161.763 198.65 160.828C196.391 159.892 194.338 158.52 192.609 156.791C190.88 155.062 189.508 153.009 188.573 150.75C187.637 148.491 187.155 146.07 187.155 143.625H233.216L232.236 157.345Z" fill="#2F2E41"/>
<path id="Vector_29" d="M183.725 167.145C185.078 167.145 186.175 164.951 186.175 162.245C186.175 159.539 185.078 157.345 183.725 157.345C182.372 157.345 181.275 159.539 181.275 162.245C181.275 164.951 182.372 167.145 183.725 167.145Z" fill="#FFB9B9"/>
<path id="Vector_30" d="M264.577 240.237H264.293V232.441C264.293 231.848 264.176 231.261 263.949 230.714C263.722 230.166 263.39 229.669 262.971 229.25C262.552 228.831 262.054 228.499 261.507 228.272C260.959 228.045 260.373 227.928 259.78 227.928H243.262C242.67 227.928 242.083 228.045 241.535 228.272C240.988 228.499 240.49 228.831 240.071 229.25C239.652 229.669 239.32 230.166 239.093 230.714C238.866 231.261 238.75 231.848 238.75 232.441V275.213C238.75 275.806 238.866 276.392 239.093 276.94C239.32 277.487 239.652 277.985 240.071 278.404C240.49 278.823 240.988 279.155 241.535 279.382C242.083 279.609 242.67 279.725 243.262 279.725H259.78C260.373 279.725 260.959 279.609 261.507 279.382C262.054 279.155 262.552 278.823 262.971 278.404C263.39 277.985 263.722 277.487 263.949 276.94C264.176 276.392 264.293 275.806 264.293 275.213V245.787H264.577V240.237Z" fill="#E6E6E6"/>
<path id="Vector_31" d="M250.857 244.567C253.022 244.567 254.777 242.812 254.777 240.647C254.777 238.482 253.022 236.727 250.857 236.727C248.692 236.727 246.937 238.482 246.937 240.647C246.937 242.812 248.692 244.567 250.857 244.567Z" fill="#BB0000"/>
<path id="Vector_32" d="M247.427 276.418C227.268 292.243 207.056 305.415 192.055 307.289L189.605 280.338C204.012 278.261 223.275 268.77 243.507 257.797L253.402 252.652C254.998 251.822 256.774 251.401 258.572 251.426C260.371 251.451 262.135 251.921 263.707 252.795C265.279 253.668 266.61 254.918 267.581 256.432C268.552 257.946 269.132 259.677 269.27 261.471V261.471C269.465 264.014 268.761 266.545 267.28 268.622C265.8 270.699 263.636 272.189 261.168 272.833L247.427 276.418Z" fill="#FFB9B9"/>
<path id="Vector_33" d="M209.206 307.779L169.025 308.759C155.505 282.235 150.598 253.931 153.344 224.047C153.344 220.853 154.119 217.707 155.601 214.878C157.083 212.05 159.229 209.622 161.854 207.805L166.085 204.876C184.172 231.727 195.391 256.661 191.565 277.398L203.326 276.418C195.71 286.697 199.235 297.179 209.206 307.779Z" fill="#BB0000"/>
<path id="Vector_34" d="M35.3474 423.518C35.3474 423.518 37.4234 378.868 79.9811 384.058Z" fill="#E6E6E6"/>
<path id="Vector_35" d="M34.8476 574.816C34.7943 574.349 29.7712 527.822 50.1102 503.2C57.6165 494.112 67.6748 489.023 80.005 488.074L80.1407 489.828C68.3062 490.739 58.6593 495.613 51.4691 504.316C31.6059 528.359 36.5431 574.157 36.5947 574.617L34.8476 574.816Z" fill="#E6E6E6"/>
<path id="Vector_36" d="M34.8983 377.865H33.128V573.486H34.8983V377.865Z" fill="#E6E6E6"/>
<path id="Vector_37" d="M34.2611 380.103C42.2868 380.103 48.793 373.597 48.793 365.571C48.793 357.545 42.2868 351.039 34.2611 351.039C26.2353 351.039 19.7292 357.545 19.7292 365.571C19.7292 373.597 26.2353 380.103 34.2611 380.103Z" fill="#BB0000"/>
<path id="Vector_38" d="M80.073 503.391C88.048 503.391 94.513 496.926 94.513 488.951C94.513 480.976 88.048 474.511 80.073 474.511C72.098 474.511 65.633 480.976 65.633 488.951C65.633 496.926 72.098 503.391 80.073 503.391Z" fill="#E6E6E6"/>
</g>
<g id="undraw_aircraft_fbvl 1" clip-path="url(#clip1)">
<path id="Vector_39" d="M437.042 336.789C441.176 336.512 447.891 334.801 455.491 332.441C476.159 326.027 503.412 314.845 503.412 314.845C503.412 314.845 646.716 264.534 731.193 175.554C731.193 175.554 742.721 160.913 723.989 156.52C721.127 155.892 718.214 155.518 715.287 155.402L715.039 155.307C712.792 154.547 710.482 153.99 708.136 153.642C701.218 152.568 690.319 152.502 680.126 159.298L427.831 324.962C427.831 324.962 421.655 337.809 437.042 336.789Z" fill="#3F3D56"/>
<path id="Vector_40" d="M482.309 292.595L407.284 277.608L384.132 293.175L427.831 324.962C427.831 324.962 484.843 300.015 482.309 292.595Z" fill="#3F3D56"/>
<path id="Vector_41" d="M614.671 203.923L487.014 222.79L470.444 234.791L531.994 234.957L556.026 245.734L614.671 203.923Z" fill="#3F3D56"/>
<path id="Vector_42" d="M455.491 332.441C476.159 326.027 503.412 314.845 503.412 314.845C503.412 314.845 646.716 264.534 731.193 175.554C731.193 175.554 742.721 160.913 723.989 156.52L724.03 156.738C724.03 156.738 708.446 181.851 607.325 242.214L455.491 332.441Z" fill="#BB0000"/>
<path id="Vector_43" d="M473.331 323.416L431.894 366.819L418.523 371.1L438.647 334.714C438.647 334.714 471.828 310.473 473.331 323.416Z" fill="#3F3D56"/>
<path id="Vector_44" d="M706.634 167.174C709.071 166.132 712.797 159.591 715.021 155.315C712.774 154.555 710.464 153.998 708.118 153.65C706.294 157.027 702.895 162.692 700.086 163.787C696.042 165.399 702.961 168.737 706.634 167.174Z" fill="#BB0000"/>
<path id="Vector_45" d="M527.662 385.103L560.981 372.251L624.881 269.528L636.742 250.456L642.502 241.191C621.163 235.022 566.062 281.328 566.062 281.328C565.309 282.89 565.684 284.761 566.577 286.613C568.253 290.079 571.747 293.466 573.046 294.665C573.361 294.961 573.542 295.111 573.542 295.111L527.662 385.103Z" fill="#3F3D56"/>
</g>
<defs>
<clipPath id="clip0">
<rect width="891.012" height="558.805" fill="white" transform="translate(0 28)"/>
</clipPath>
<clipPath id="clip1">
<rect width="423" height="268" fill="white" transform="matrix(-0.912892 0.408201 0.408201 0.912892 704.153 0)"/>
</clipPath>
</defs>
</svg>
